<svg width="74" height="90" viewBox="0 0 74 90" fill="none" xmlns="http://www.w3.org/2000/svg">
<g id="logo-uud">
<path id="Book" d="M74 63.2812V4.21875C74 1.88086 72.2326 0 70.0357 0H15.8571C7.10268 0 0 7.55859 0 16.875V73.125C0 82.4414 7.10268 90 15.8571 90H70.0357C72.2326 90 74 88.1191 74 85.7812V82.9687C74 81.6504 73.4219 80.4551 72.5299 79.6816C71.8362 76.9746 71.8362 69.2578 72.5299 66.5508C73.4219 65.7949 74 64.5996 74 63.2812ZM62.9991 78.75H15.8571C12.9335 78.75 10.5714 76.2363 10.5714 73.125C10.5714 70.0312 12.95 67.5 15.8571 67.5H62.9991C62.6853 70.5059 62.6853 75.7441 62.9991 78.75Z" fill="#343434"/>
<g id="Group 5">
<circle id="Ellipse 1" cx="20" cy="14" r="3" fill="white"/>
<circle id="Ellipse 8" cx="54" cy="14" r="3" fill="white"/>
<circle id="Ellipse 2" cx="37" cy="20" r="4" fill="white"/>
<path id="Ellipse 10" d="M40 13.8C40 15.5673 38.6569 17 37 17C35.3431 17 34 15.5673 34 13.8C34 12.0327 37 9 37 9C37 9 40 12.0327 40 13.8Z" fill="white"/>
<path id="Ellipse 4" d="M20 40C24.9706 40 29 35.9706 29 31H11C11 35.9706 15.0294 40 20 40Z" fill="white"/>
<path id="Ellipse 9" d="M54 40C58.9706 40 63 35.9706 63 31H45C45 35.9706 49.0294 40 54 40Z" fill="white"/>
<path id="Polygon 1" d="M21.3131 19.412L27.4501 30.5249C28.0022 31.5246 27.2791 32.75 26.1371 32.75H13.8629C12.7209 32.75 11.9978 31.5246 12.5499 30.5249L18.6869 19.412C19.2575 18.3788 20.7425 18.3788 21.3131 19.412Z" stroke="white"/>
<path id="Polygon 2" d="M55.3131 19.412L61.4501 30.5249C62.0022 31.5246 61.2791 32.75 60.1371 32.75H47.8629C46.7209 32.75 45.9978 31.5246 46.5499 30.5249L52.6869 19.412C53.2575 18.3788 54.7425 18.3788 55.3131 19.412Z" stroke="white"/>
<path id="Vector 5" d="M20 14C20 14 24 9.49998 29 9.5C34 9.50002 37 14 37 14" stroke="white" stroke-width="2"/>
<path id="Vector 6" d="M37 14.5C37 14.5 41 9.99998 46 10C51 10 54 14.5 54 14.5" stroke="white" stroke-width="2"/>
<path id="Union" fill-rule="evenodd" clip-rule="evenodd" d="M41 27C41 28.0909 40.1956 29.0434 39 29.5531V47.8831C41.3304 48.4901 43 50.1277 43 52.0526H48.0526C49.6804 52.0526 51 53.3722 51 55H22C22 53.3722 23.3196 52.0526 24.9474 52.0526H31C31 50.1277 32.6696 48.4901 35 47.8831V29.5531C33.8044 29.0434 33 28.0909 33 27H35H39H41Z" fill="white"/>
</g>
<rect id="Rectangle 12" x="16" y="58" width="42" height="4" rx="2" fill="white"/>
</g>
</svg>
